HIERARCHY
ROOT Hips
{
	OFFSET -3.958830 18.904000 13.208200
	CHANNELS 6 Xposition Yposition Zposition Zrotation Yrotation Xrotation 
	JOINT LHipJoint
	{
		OFFSET 0.000000 0.000000 0.000000
		CHANNELS 3 Zrotation Yrotation Xrotation
		JOINT LeftUpLeg
		{
			OFFSET 1.800000 -1.400000 0.085000
			CHANNELS 3 Zrotation Yrotation Xrotation
			JOINT LeftLeg
			{
				OFFSET 2.215000 -6.000000 0.000000
				CHANNELS 3 Zrotation Yrotation Xrotation
				JOINT LeftFoot
				{
					OFFSET 2.500000 -6.900000 0.000000
					CHANNELS 3 Zrotation Yrotation Xrotation
					JOINT LeftToeBase
					{
						OFFSET 0.200000 -0.500000 1.950000
						CHANNELS 3 Zrotation Yrotation Xrotation
						End Site
						{
							OFFSET 0.000000 0.000000 0.000000
						}
					}
				}
			}
		}
	}
	JOINT RHipJoint
	{
		OFFSET 0.000000 0.000000 0.000000
		CHANNELS 3 Zrotation Yrotation Xrotation
		JOINT RightUpLeg
		{
			OFFSET -1.800000 -1.400000 0.085000
			CHANNELS 3 Zrotation Yrotation Xrotation
			JOINT RightLeg
			{
				OFFSET -2.215000 -6.000000 0.000000
				CHANNELS 3 Zrotation Yrotation Xrotation
				JOINT RightFoot
				{
					OFFSET -2.500000 -6.900000 0.000000
					CHANNELS 3 Zrotation Yrotation Xrotation
					JOINT RightToeBase
					{
						OFFSET -0.200000 -0.500000 1.950000
						CHANNELS 3 Zrotation Yrotation Xrotation
						End Site
						{
							OFFSET 0.000000 0.000000 0.000000
						}
					}
				}
			}
		}
	}
	JOINT LowerBack
	{
		OFFSET 0.000000 0.000000 0.000000
		CHANNELS 3 Zrotation Yrotation Xrotation
		JOINT Spine
		{
			OFFSET -0.087000 1.940000 -0.288900
			CHANNELS 3 Zrotation Yrotation Xrotation
			JOINT Spine1
			{
				OFFSET 0.000000 1.950000 0.060000
				CHANNELS 3 Zrotation Yrotation Xrotation
				JOINT Neck
				{
					OFFSET 0.000000 0.000000 0.000000
					CHANNELS 3 Zrotation Yrotation Xrotation
					JOINT Neck1
					{
						OFFSET 0.000000 1.600000 0.340000
						CHANNELS 3 Zrotation Yrotation Xrotation
						JOINT Head
						{
							OFFSET 0.000000 1.667000 -0.240000
							CHANNELS 3 Zrotation Yrotation Xrotation
							End Site
							{
								OFFSET 0.000000 0.000000 0.000000
							}
						}
					}
				}
				JOINT LeftShoulder
				{
					OFFSET 0.000000 0.000000 0.000000
					CHANNELS 3 Zrotation Yrotation Xrotation
					JOINT LeftArm
					{
						OFFSET 2.700000 1.550000 -0.730000
						CHANNELS 3 Zrotation Yrotation Xrotation
						JOINT LeftForeArm
						{
							OFFSET 5.450000 0.000000 0.000000
							CHANNELS 3 Zrotation Yrotation Xrotation
							JOINT LeftHand
							{
								OFFSET 3.450000 0.000000 0.000000
								CHANNELS 3 Zrotation Yrotation Xrotation
								JOINT LeftHandIndex1
								{
									OFFSET 0.750000 0.000000 0.000000
									CHANNELS 3 Zrotation Yrotation Xrotation
									End Site
									{
										OFFSET 0.000000 0.000000 0.000000
									}
								}
							}
						}
					}
				}
				JOINT RightShoulder
				{
					OFFSET 0.000000 0.000000 0.000000
					CHANNELS 3 Zrotation Yrotation Xrotation
					JOINT RightArm
					{
						OFFSET -2.700000 1.550000 -0.730000
						CHANNELS 3 Zrotation Yrotation Xrotation
						JOINT RightForeArm
						{
							OFFSET -5.450000 0.000000 0.000000
							CHANNELS 3 Zrotation Yrotation Xrotation
							JOINT RightHand
							{
								OFFSET -3.450000 0.000000 0.000000
								CHANNELS 3 Zrotation Yrotation Xrotation
								JOINT RightHandIndex1
								{
									OFFSET -0.750000 0.000000 0.000000
									CHANNELS 3 Zrotation Yrotation Xrotation
									End Site
									{
										OFFSET 0.000000 0.000000 0.000000
									}
								}
							}
						}
					}
				}
			}
		}
	}
}
MOTION
Frames: 12
Frame Time: 0.016667
1.095690 16.975410 -11.055910 4.906927 34.953136 8.584164 -15.092549 11.712510 3.579515 -1.231374 -4.529978 -14.734437 -21.945993 6.224535 6.460799 0.065502 4.298869 2.981200 0.335590 0.335040 0.259750 18.518506 -9.813675 4.025351 -19.648382 0.929684 -40.545817 18.016540 -16.094224 40.345343 -0.831954 -7.589251 1.450510 0.234080 -0.088380 0.027460 -4.586278 -0.784082 -8.868697 13.521523 -7.547252 32.897951 -14.254035 -3.896461 3.483224 5.775202 3.169551 -4.008467 2.974821 -3.431792 50.182910 3.947090 -2.016160 -6.989620 -32.251786 -3.912545 -3.551084 -25.858274 -11.984768 -7.381254 -8.830338 -68.864805 5.304213 -3.479324 3.350516 0.219380 -0.079090 0.140670 0.036620 21.327045 -2.310089 4.089616 32.686460 -10.927242 -9.666612 52.546855 55.036378 21.089853 2.356475 -1.872230 -0.011690 0.126160 -0.085910 -0.089130 
1.089660 16.991870 -11.061980 4.786058 34.931752 8.628002 -15.099912 11.755034 3.596435 -1.108026 -4.468192 -14.716755 -21.916773 6.160268 6.164411 0.067452 4.292234 2.988451 0.321600 0.318650 0.247930 18.502976 -9.827960 3.990152 -19.044995 1.092180 -40.684971 17.228582 -15.633727 40.308482 -0.793115 -7.450707 1.500645 0.226120 -0.077740 0.024820 -4.562323 -0.841285 -8.856495 13.409695 -7.539038 32.905705 -13.999348 -3.880500 3.539318 5.708470 2.998079 -4.080208 2.589210 -3.197228 50.694105 3.814770 -1.961650 -6.290570 -32.276332 -3.978727 -3.450628 -26.226735 -11.910007 -7.460322 -7.814268 -69.109419 4.618307 -3.483605 3.341327 0.211690 -0.071090 0.130110 0.036570 21.479490 -2.051881 4.059790 32.319894 -10.708000 -9.662606 51.294676 54.724324 20.391809 2.353347 -1.867650 -0.016420 0.126220 -0.079570 -0.086800 
1.083670 17.012760 -11.069080 4.705736 34.941948 8.664229 -15.111548 11.808468 3.611337 -1.244247 -4.366124 -14.603317 -21.626751 6.017276 5.737528 0.061488 4.231304 3.013187 0.321540 0.319930 0.247700 18.482149 -9.855536 3.946010 -18.443567 1.214847 -40.687192 16.445402 -15.130100 40.136027 -0.757578 -7.283183 1.560519 0.225340 -0.075600 0.021260 -4.528000 -0.897954 -8.836596 13.192989 -7.486920 32.918678 -13.670523 -3.854200 3.623248 5.675221 3.018322 -4.159349 2.631319 -3.099976 51.043823 3.917880 -1.866370 -6.058000 -32.178743 -4.057238 -3.327539 -26.672628 -11.825364 -7.538051 -7.157670 -69.228628 4.139735 -3.480787 3.332364 0.208890 -0.070210 0.128680 0.038460 21.486204 -1.882982 3.983608 32.064748 -10.343469 -9.619909 50.432124 54.182154 19.766253 2.352984 -1.860262 -0.016200 0.128040 -0.081970 -0.085350 
1.085530 17.025650 -11.066800 4.558285 35.179320 8.939483 -15.115351 11.836016 3.611029 -1.476186 -4.148467 -14.285251 -21.138773 5.690329 4.652104 0.047478 4.121078 3.061564 0.315490 0.314940 0.240010 18.478152 -9.867415 3.923297 -17.982185 1.261984 -40.906277 15.839878 -14.765056 39.980531 -0.727887 -7.155003 1.606929 0.222320 -0.067080 0.017920 -4.526307 -0.929957 -8.821986 13.315092 -7.561408 32.409677 -13.444539 -3.928923 3.655787 5.599652 2.902425 -4.179488 2.375034 -3.078278 50.915952 3.990010 -2.048720 -5.969250 -31.932337 -3.823853 -3.242590 -27.421008 -11.604633 -7.506318 -7.613344 -69.460053 4.368715 -3.482683 3.328947 0.204550 -0.067880 0.123970 0.041250 21.385461 -1.987035 3.869924 32.256819 -10.199850 -9.691608 49.503209 53.722349 19.148413 2.349766 -1.850786 -0.018300 0.134260 -0.079860 -0.080450 
1.086850 17.031640 -11.057250 4.379156 35.221965 9.210184 -15.115075 11.839311 3.616468 -1.545520 -3.990063 -14.078317 -20.785839 5.377355 3.557928 0.037727 4.033852 3.100597 0.308880 0.306780 0.230270 18.478913 -9.875608 3.910566 -17.604331 1.355590 -41.077346 15.450801 -14.484704 39.799896 -0.704247 -7.051554 1.645068 0.217350 -0.057990 0.016350 -4.527475 -0.924123 -8.816937 13.416512 -7.464213 31.887537 -13.292705 -3.821025 3.613173 5.524408 2.940709 -4.259438 2.412846 -3.252034 50.446994 4.328620 -2.395190 -5.973910 -31.651374 -3.721902 -3.161015 -27.897539 -11.408007 -7.443111 -8.165128 -69.597516 4.696210 -3.483917 3.329766 0.202330 -0.066830 0.118380 0.044010 21.215033 -2.030227 3.903194 32.554529 -10.460268 -9.830701 48.914876 53.426357 18.724323 2.346499 -1.844416 -0.020280 0.137730 -0.076710 -0.075560 
1.085560 17.037330 -11.055060 4.167334 34.969932 9.384237 -15.116125 11.833526 3.631648 -1.466127 -4.051505 -14.415194 -20.739260 5.280257 3.295872 0.029798 3.999113 3.111149 0.310600 0.307380 0.232660 18.478177 -9.868331 3.909873 -17.193976 1.560778 -41.370946 14.934231 -14.246843 39.986118 -0.693327 -6.989854 1.665533 0.216720 -0.058280 0.018450 -4.513081 -0.929998 -8.817068 13.437369 -7.322499 31.697475 -13.128413 -3.640094 3.550002 5.475763 2.925209 -4.303562 2.366305 -3.351224 49.747760 4.484450 -2.570230 -6.354900 -31.317250 -3.577078 -3.150470 -28.383581 -11.283437 -7.440703 -8.299181 -69.665764 4.745908 -3.482818 3.327371 0.203330 -0.069120 0.119410 0.042410 20.925353 -2.048511 3.918754 32.677023 -10.561135 -9.887732 48.697215 53.063841 18.450057 2.346346 -1.839574 -0.018370 0.137430 -0.076810 -0.074430 
1.079390 17.044700 -11.055210 3.962049 34.405748 9.444119 -15.116266 11.841325 3.637381 -1.545456 -4.050323 -14.653434 -20.454259 5.175107 3.055145 0.015773 3.937078 3.131814 0.304380 0.301600 0.229260 18.477197 -9.863011 3.921340 -16.727885 1.835484 -41.743623 14.343932 -13.933305 40.171214 -0.677454 -6.911848 1.694705 0.212730 -0.057680 0.017400 -4.496802 -0.934507 -8.816939 13.300886 -7.094181 31.601745 -13.058873 -3.412895 3.515986 5.437183 2.904957 -4.445556 2.347767 -3.155760 49.516590 4.453700 -2.325460 -6.349290 -31.034539 -3.641420 -3.059322 -28.593697 -11.064846 -7.562816 -7.655215 -69.677437 4.277856 -3.482596 3.318971 0.204410 -0.067900 0.118530 0.040050 20.654039 -1.843163 4.007694 33.072597 -10.512907 -9.992168 48.335354 52.890213 18.203571 2.345495 -1.829323 -0.020600 0.136880 -0.073530 -0.076200 
1.073490 17.049860 -11.052550 3.878177 34.205750 9.530959 -15.120787 11.841368 3.628529 -1.543034 -4.056815 -14.788553 -20.215112 5.122820 3.004791 -0.002183 3.905286 3.141151 0.303240 0.296410 0.232140 18.475100 -9.837883 3.952816 -16.671561 1.946472 -42.002730 14.426077 -13.962744 40.267468 -0.681365 -6.926526 1.686973 0.211580 -0.057880 0.019010 -4.473226 -0.955753 -8.823562 13.041725 -6.931546 31.614304 -12.891362 -3.282936 3.470940 5.349496 2.901579 -4.465025 2.266190 -3.386799 49.112663 4.502190 -2.623410 -6.737290 -30.808143 -3.597624 -3.077020 -28.749041 -11.075927 -7.524421 -8.084859 -69.660016 4.540428 -3.484962 3.312815 0.210970 -0.070560 0.119120 0.034830 20.587605 -1.789216 4.019174 33.391036 -10.518577 -10.109352 48.058967 52.635665 17.940265 2.343261 -1.817515 -0.023510 0.139830 -0.068680 -0.078400 
1.080930 17.049040 -11.036240 3.729339 34.635432 9.293116 -15.120415 11.864623 3.596466 -1.414634 -4.097258 -14.987774 -19.921436 5.298797 3.873276 -0.009517 3.906384 3.138796 0.297730 0.288650 0.231120 18.468926 -9.851852 3.961880 -17.008477 1.783303 -41.529450 15.358939 -14.346187 39.873843 -0.698152 -6.994752 1.665660 0.205720 -0.055520 0.017690 -4.485099 -0.968867 -8.813341 13.221458 -7.039837 31.512114 -12.861611 -3.352070 3.375692 5.374565 3.074611 -4.520618 2.585396 -3.565050 49.136130 4.702780 -2.708820 -6.717930 -30.790080 -3.639427 -3.041839 -28.791263 -10.974622 -7.488116 -9.000630 -69.547402 5.126248 -3.487427 3.312444 0.214670 -0.071430 0.119490 0.033090 20.540364 -1.905739 4.091634 33.752100 -11.000993 -10.320520 47.942481 52.455703 17.751014 2.340889 -1.810093 -0.026120 0.142510 -0.066320 -0.078840 
1.082510 17.045240 -11.020950 3.552057 34.657014 9.000615 -15.117466 11.873523 3.570562 -1.018258 -4.216484 -15.357896 -19.934563 5.602505 5.105156 -0.013339 3.970787 3.110517 0.294990 0.284240 0.232610 18.464446 -9.864421 3.977821 -17.236930 1.765737 -41.175574 16.087216 -14.588363 39.535683 -0.708916 -7.036988 1.651801 0.205040 -0.053050 0.017180 -4.489874 -0.948529 -8.804315 13.179637 -6.944271 31.501281 -12.845877 -3.275137 3.334878 5.410675 3.284777 -4.474021 3.025258 -3.765755 49.214404 4.736600 -2.699620 -6.700490 -30.773797 -3.542080 -3.108679 -28.615589 -11.004422 -7.414984 -9.464931 -69.543909 5.468420 -3.494215 3.310909 0.217260 -0.069260 0.118350 0.030540 20.492837 -2.153334 4.034440 34.102167 -11.056962 -10.392591 47.864629 52.210720 17.587118 2.338530 -1.803579 -0.030330 0.145730 -0.063340 -0.081500 
1.083300 17.046340 -11.009480 3.557169 34.524976 8.794026 -15.111704 11.867181 3.563721 -0.816403 -4.297991 -15.457564 -20.135849 5.812829 5.823342 -0.014369 4.045313 3.079751 0.292280 0.278630 0.234580 18.465723 -9.878432 3.979730 -17.492238 1.722976 -40.803937 16.659123 -14.726551 39.156062 -0.711058 -7.054384 1.643001 0.206700 -0.052630 0.016280 -4.501917 -0.908985 -8.801664 13.078077 -6.852466 31.641454 -13.000358 -3.233504 3.231835 5.410369 3.301752 -4.337380 3.086801 -3.762883 49.328046 4.638750 -2.625840 -6.695830 -31.073635 -3.459410 -3.238003 -28.076536 -11.020210 -7.425446 -9.174685 -69.579028 5.336081 -3.499249 3.309324 0.220810 -0.067320 0.115380 0.025220 20.801078 -2.303959 3.955440 34.213349 -11.062725 -10.415996 47.883587 52.114788 17.541137 2.336319 -1.800213 -0.036730 0.147320 -0.058320 -0.086790 
1.084840 17.043490 -10.998510 3.499846 34.480759 8.598791 -15.109594 11.869472 3.555874 -0.724615 -4.344732 -15.553797 -20.154195 5.945423 6.341915 -0.015700 4.080917 3.064257 0.292490 0.277370 0.234840 18.464472 -9.888388 3.981511 -17.622942 1.708460 -40.556027 17.014955 -14.828648 38.963338 -0.715547 -7.072891 1.635332 0.207680 -0.053120 0.017700 -4.507685 -0.891420 -8.797730 13.117919 -6.749205 31.711489 -13.019201 -3.122052 3.099893 5.398347 3.273014 -4.234984 2.988251 -3.899937 49.222277 4.563700 -2.802210 -6.809340 -31.253239 -3.316883 -3.398489 -27.910034 -11.158968 -7.349650 -9.548266 -69.297694 5.611195 -3.502419 3.309956 0.222120 -0.067370 0.114770 0.023600 20.984739 -2.432849 3.947362 34.191849 -11.330732 -10.464072 48.148892 52.082374 17.607710 2.334364 -1.802728 -0.037510 0.147340 -0.056210 -0.087620 
